<svg data-v-423bf9ae="" xmlns="http://www.w3.org/2000/svg" viewBox="0 0 470 90" class="iconLeft"><!----><!----><!----><g data-v-423bf9ae="" id="19363537-b424-4df8-a8e2-b5b80b357f4b" fill="#FFFFFF" transform="matrix(5.88235305117351,0,0,5.88235305117351,130.00994091217999,-8.529410774182566)"><path d="M4.19 14.10L5.66 14.01L8.79 5.01L9.72 4.83L9.72 4.20L6.44 4.20L6.44 4.83L7.52 5.01C7.52 5.01 7.41 5.64 7.17 6.37L5.56 11.31C5.36 11.94 5.29 12.38 5.29 12.38L5.24 12.38C5.24 12.38 5.15 11.97 4.91 11.34L2.58 4.96L3.32 4.83L3.32 4.20L-0.08 4.20L-0.08 4.83L0.73 4.98ZM14.90 13.34C13.24 13.34 12.15 11.59 12.15 9.09C12.15 6.69 12.84 4.86 14.71 4.86C16.38 4.86 17.46 6.73 17.46 9.20C17.46 11.51 16.77 13.34 14.90 13.34ZM14.78 14.20C17.82 14.20 19.45 11.89 19.45 8.92C19.45 6.12 17.67 4.00 14.83 4.00C11.79 4.00 10.16 6.31 10.16 9.28C10.16 12.08 11.94 14.20 14.78 14.20ZM28.52 14.13C29.02 14.13 29.43 14 29.43 14L29.43 13.40C29.06 13.40 28.83 13.26 28.64 12.98L26.45 9.70C27.52 9.35 28.27 8.40 28.27 7.13C28.27 5.28 26.96 4.20 24.47 4.20L20.86 4.20L20.86 4.83L21.76 5.01L21.76 13.19L20.86 13.37L20.86 14L24.77 14L24.77 13.37L23.69 13.19L23.69 10.18L24.78 10.18L26.60 13.09C27.09 13.86 27.50 14.13 28.52 14.13ZM23.69 9.28L23.69 5.10L24.11 5.10C25.52 5.10 26.31 5.88 26.31 7.22C26.31 8.54 25.49 9.28 24.32 9.28ZM30.21 14L33.99 14C36.88 14 39.20 12.32 39.20 8.92C39.20 6.23 37.39 4.20 34.23 4.20L30.21 4.20L30.21 4.83L31.11 5.01L31.11 13.19L30.21 13.37ZM33.04 13.10L33.04 5.10L33.71 5.10C36.50 5.10 37.20 7 37.20 9.18C37.20 11.44 36.50 13.10 34.10 13.10ZM40.54 14L47.57 14L47.63 11.58L46.89 11.58L46.65 13.05L43.37 13.10L43.37 9.48L46.31 9.55L46.31 8.44L43.37 8.53L43.37 5.10L46.44 5.18L46.55 6.58L47.35 6.58L47.43 4.20L40.54 4.20L40.54 4.83L41.44 5.01L41.44 13.19L40.54 13.37ZM48.36 14L51.63 14L51.63 13.37L50.69 13.19C50.69 13.19 50.96 12.73 51.28 12.25L52.21 10.85C52.53 10.37 52.71 9.97 52.71 9.97L54.88 13.20L54.01 13.37L54.01 14L57.71 14L57.71 13.37L56.91 13.23L53.89 8.83L56.67 5.05L57.51 4.83L57.51 4.20L54.24 4.20L54.24 4.83L55.20 5.08C55.20 5.08 54.99 5.50 54.68 5.95L53.86 7.11C53.54 7.59 53.30 8.04 53.30 8.04L51.38 5.00L52.15 4.83L52.15 4.20L48.48 4.20L48.48 4.83L49.27 4.97L52.07 9.11L49.15 13.19L48.36 13.37Z"></path></g><!----><g data-v-423bf9ae="" id="e5af164e-7423-4fc0-b70b-6d9276a843b3" transform="matrix(1.3618706511037677,0,0,1.3618706511037677,-12.231686440579352,-22.12119631233135)" stroke="none" fill="#C3A287"><g><path d="M69.366 35.201c-10.935-10.935-28.663-10.935-39.598 0-10.935 10.935-10.935 28.663 0 39.598 10.935 10.935 28.663 10.935 39.598 0 10.935-10.935 10.935-28.663 0-39.598m-3.832 3.832c8.818 8.818 8.818 23.116 0 31.934-8.818 8.818-23.115 8.818-31.934 0-8.818-8.818-8.818-23.116 0-31.934 8.819-8.818 23.116-8.818 31.934 0m-1.118 1.118c-8.2-8.201-21.497-8.201-29.698 0-8.201 8.2-8.201 21.497 0 29.698 8.2 8.201 21.497 8.201 29.698 0 8.201-8.2 8.201-21.497 0-29.698M12.92 45.697L10.567 80.35s.8 2.651 4 2.651 4-2.651 4-2.651l-2.353-34.652C18.277 44.935 19.567 43 19.567 43V26a1 1 0 00-2 0v11s0 1-1 1-1-1-1-1V26a1 1 0 00-2 0v11s0 1-1 1-1-1-1-1V26a1 1 0 10-2 0v17s1.29 1.935 3.353 2.697zM87 17c-2-1-7 7-8 17s2 15 2 15l3.012 1.72L82 80.35S82.8 83 86 83s4-2.651 4-2.651z"></path></g></g><!----></svg>